<svg width="20" height="23" fill="none" xmlns="http://www.w3.org/2000/svg"><path d="M18.86 16v1.442c0 .921-.641 1.914-2.174 2.73-1.512.807-3.715 1.327-6.325 1.327-2.61 0-4.813-.52-6.325-1.327-1.533-.817-2.175-1.81-2.175-2.727v-1.447a1.125 1.125 0 01.342-.815 1.231 1.231 0 01.852-.348H17.67a1.233 1.233 0 01.85.349 1.155 1.155 0 01.342.814zm1 .003v1.44c0 2.892-4.043 5.057-9.499 5.057s-9.5-2.167-9.5-5.055v-1.442h19zM14.79 5.831a4.25 4.25 0 01-.334 1.653 4.329 4.329 0 01-.956 1.407 4.44 4.44 0 01-1.437.944 4.52 4.52 0 01-3.403.003 4.439 4.439 0 01-1.44-.943 4.33 4.33 0 01-.957-1.405 4.252 4.252 0 01-.336-1.652c0-1.144.46-2.245 1.29-3.06A4.482 4.482 0 0110.354 1.5c1.18 0 2.31.46 3.14 1.274A4.287 4.287 0 0114.79 5.83z" stroke="#fff" stroke-width="2"/></svg>