<svg width="23" height="23" fill="none" xmlns="http://www.w3.org/2000/svg"><path d="M4.903 1.5l-3.336 4v14c0 .53.234 1.04.651 1.414.417.375.983.586 1.573.586h15.571c.59 0 1.156-.21 1.573-.586.417-.375.651-.884.651-1.414v-14l-3.336-4H4.903zM1.567 5.603h20.02" stroke="#fff" stroke-width="2" stroke-linecap="round" stroke-linejoin="round"/><path d="M16.081 9.705c0 1.088-.474 2.132-1.32 2.901-.844.77-1.99 1.202-3.184 1.202-1.195 0-2.34-.432-3.185-1.202-.845-.77-1.32-1.813-1.32-2.9" stroke="#fff" stroke-width="2" stroke-linecap="round" stroke-linejoin="round"/></svg>